<?xml version="1.0" encoding="UTF-8"?>
<svg version="1.1" xmlns="http://www.w3.org/2000/svg" width="217" height="189">
<path d="M0 0 C71.61 0 143.22 0 217 0 C217 62.37 217 124.74 217 189 C145.39 189 73.78 189 0 189 C0 126.63 0 64.26 0 0 Z " fill="#ECEEEB" transform="translate(0,0)"/>
<path d="M0 0 C0 27.39 0 54.78 0 83 C-30.69 83 -61.38 83 -93 83 C-93 55.94 -93 28.88 -93 1 C-70.36971847 0.75043408 -70.36971847 0.75043408 -60.75 0.64453125 C-54.17675711 0.57216625 -47.6035145 0.4997769 -41.03027344 0.42724609 C-35.73295571 0.36879564 -30.43563683 0.31045143 -25.13831711 0.25218201 C-23.11364068 0.22989209 -21.08896467 0.20756339 -19.06428909 0.18519592 C-16.23638264 0.15396133 -13.40847472 0.12286257 -10.58056641 0.09179688 C-9.31497643 0.07777077 -9.31497643 0.07777077 -8.02381897 0.0634613 C-2.22810432 0 -2.22810432 0 0 0 Z " fill="#A67F03" transform="translate(152,50)"/>
<path d="M0 0 C18.81 0.495 18.81 0.495 38 1 C38 28.06 38 55.12 38 83 C7.97 83.33 -22.06 83.66 -53 84 C-53 72.45 -53 60.9 -53 49 C-35.18 49 -17.36 49 1 49 C0.67 47.35 0.34 45.7 0 44 C-0.08119805 42.4661183 -0.11795197 40.92933353 -0.11352539 39.39331055 C-0.11344986 38.51277512 -0.11337433 37.63223969 -0.11329651 36.72502136 C-0.10813522 35.7883815 -0.10297394 34.85174164 -0.09765625 33.88671875 C-0.0962413 32.91716751 -0.09482635 31.94761627 -0.09336853 30.94868469 C-0.08778513 27.86159133 -0.07523564 24.77457133 -0.0625 21.6875 C-0.05748286 19.59049584 -0.05292032 17.49349054 -0.04882812 15.39648438 C-0.03867337 10.26427213 -0.01909465 5.13221788 0 0 Z " fill="#1B1C1D" transform="translate(165,98)"/>
<path d="M0 0 C0 27.06 0 54.12 0 82 C-12.54 82 -25.08 82 -38 82 C-38 66.16 -38 50.32 -38 34 C-55.49 34 -72.98 34 -91 34 C-91 25.81004196 -90.99264342 17.77358851 -90.5 9.625 C-90.45230469 8.78195312 -90.40460938 7.93890625 -90.35546875 7.0703125 C-90.24048921 5.04667251 -90.1207941 3.02330123 -90 1 C-79.00373392 0.8692691 -68.00746412 0.73885605 -57.01118946 0.60884857 C-51.90516285 0.54847072 -46.79913758 0.48798346 -41.69311523 0.42724609 C-36.76536545 0.36863334 -31.83761234 0.31030809 -26.9098568 0.25218201 C-25.03000454 0.22995743 -23.1501535 0.20762933 -21.27030373 0.18519592 C-18.63699275 0.1537887 -16.00367768 0.12274981 -13.37036133 0.09179688 C-12.59352493 0.08244614 -11.81668854 0.0730954 -11.01631165 0.0634613 C-7.34364663 0.02066477 -3.67306463 0 0 0 Z " fill="#0F3750" transform="translate(203,4)"/>
<path d="M0 0 C12.21 0 24.42 0 37 0 C37 15.84 37 31.68 37 48 C54.49 48 71.98 48 90 48 C90 59.55 90 71.1 90 83 C60.63 82.67 31.26 82.34 1 82 C0.67 54.94 0.34 27.88 0 0 Z " fill="#3D4041" transform="translate(9,99)"/>
<path d="M0 0 C29.7 0 59.4 0 90 0 C90 10.56 90 21.12 90 32 C72.51 32 55.02 32 37 32 C37 47.84 37 63.68 37 80 C24.79 80 12.58 80 0 80 C0 53.6 0 27.2 0 0 Z " fill="#212223" transform="translate(9,5)"/>
<path d="M0 0 C7.92 0 15.84 0 24 0 C24 62.37 24 124.74 24 189 C-1.41 189 -26.82 189 -53 189 C-53 187.68 -53 186.36 -53 185 C-52.34 185 -51.68 185 -51 185 C-51 184.34 -51 183.68 -51 183 C-54.96 182.67 -58.92 182.34 -63 182 C-63 181.67 -63 181.34 -63 181 C-38.91 181 -14.82 181 10 181 C10 153.94 10 126.88 10 99 C-1.88 99 -13.76 99 -26 99 C-26.99 98.505 -26.99 98.505 -28 98 C-28 102.62 -28 107.24 -28 112 C-28.33 112 -28.66 112 -29 112 C-29 107.38 -29 102.76 -29 98 C-29.66 98 -30.32 98 -31 98 C-33.19909502 92.74660633 -33.19909502 92.74660633 -32.25 89.1875 C-31 87 -31 87 -29 86 C-26.09252535 86.09206508 -23.2132523 86.24214608 -20.3125 86.4375 C-5.5463765 87.67704245 -5.5463765 87.67704245 9 86 C9.33 58.61 9.66 31.22 10 3 C7.03 3 4.06 3 1 3 C0.505 1.515 0.505 1.515 0 0 Z " fill="#E5E6E2" transform="translate(193,0)"/>
<path d="M0 0 C0 27.39 0 54.78 0 83 C-21.78 83 -43.56 83 -66 83 C-66.66 81.68 -67.32 80.36 -68 79 C-69.485 79.495 -69.485 79.495 -71 80 C-73.232269 79.91382274 -75.46238486 79.76077759 -77.6875 79.5625 C-78.86699219 79.46066406 -80.04648438 79.35882813 -81.26171875 79.25390625 C-82.61716797 79.12822266 -82.61716797 79.12822266 -84 79 C-81.40705876 71.22117627 -71.22833121 65.16495759 -65 60 C-65.33 59.34 -65.66 58.68 -66 58 C-46.695 58.495 -46.695 58.495 -27 59 C-27.35460156 47.88480518 -27.35460156 47.88480518 -27.81079102 36.77368164 C-28.11127849 25.73616886 -28.11127849 25.73616886 -25.08618164 21.01000977 C-22.83695318 18.77364322 -20.52774973 16.90770539 -18 15 C-16.7376719 13.63408304 -15.50241477 12.24194193 -14.3125 10.8125 C-4.992125 0 -4.992125 0 0 0 Z " fill="#224145" transform="translate(152,50)"/>
<path d="M0 0 C28.05 0 56.1 0 85 0 C81.25889821 4.36461875 77.5129334 8.71397717 73.71484375 13.02734375 C72.62870182 14.27677809 71.55643709 15.53852938 70.50390625 16.81640625 C67.28237234 20.71891481 63.83820714 24.00870497 59.9296875 27.2265625 C56.23057637 30.62615046 53.81376701 33.09489546 53.45410156 38.23950195 C53.41306347 39.90539066 53.39303612 41.57188889 53.390625 43.23828125 C53.37408875 44.11904831 53.35755249 44.99981537 53.34051514 45.90727234 C53.2920893 48.70908621 53.27067647 51.51035754 53.25 54.3125 C53.22183575 56.21682409 53.19190768 58.12112297 53.16015625 60.02539062 C53.08633186 64.68354907 53.03672421 69.3414073 53 74 C52.67 74 52.34 74 52 74 C52 60.47 52 46.94 52 33 C34.51 33 17.02 33 -1 33 C-1 21.99495065 -0.57841255 10.98983849 0 0 Z " fill="#154460" transform="translate(113,5)"/>
<path d="M0 0 C12.87 0 25.74 0 39 0 C39 10.89 39 21.78 39 33 C34.23105932 33.02297669 29.46231134 33.04288396 24.69335938 33.05493164 C23.07160796 33.05995505 21.44986105 33.06677494 19.828125 33.07543945 C17.49478031 33.08759229 15.1614956 33.09324828 12.828125 33.09765625 C12.10506165 33.10281754 11.38199829 33.10797882 10.63702393 33.11329651 C3.83193321 33.11405194 3.83193321 33.11405194 1 32 C-0.46098845 29.0780231 -0.11134901 26.50106525 -0.09765625 23.2421875 C-0.09515869 22.02901855 -0.09266113 20.81584961 -0.09008789 19.56591797 C-0.08098389 18.01791504 -0.07187988 16.46991211 -0.0625 14.875 C-0.041875 9.96625 -0.02125 5.0575 0 0 Z " fill="#F1F4F1" transform="translate(86,76)"/>
<path d="M0 0 C29.04 0 58.08 0 88 0 C86.68 1.65 85.36 3.3 84 5 C83.59072938 7.69668338 83.39504923 10.01251696 83.390625 12.70703125 C83.37499512 13.35071655 83.35936523 13.99440186 83.34326172 14.65759277 C83.29100423 17.04219191 83.27245415 19.42743402 83.25 21.8125 C83.1675 27.154375 83.085 32.49625 83 38 C65.18 38 47.36 38 29 38 C29 37.67 29 37.34 29 37 C46.49 37 63.98 37 82 37 C82 26.44 82 15.88 82 5 C52.3 5 22.6 5 -8 5 C-8 4.67 -8 4.34 -8 4 C-4.535 3.505 -4.535 3.505 -1 3 C-0.67 2.01 -0.34 1.02 0 0 Z " fill="#D5D6D3" transform="translate(17,0)"/>
<path d="M0 0 C0 11.55 0 23.1 0 35 C-0.33 35 -0.66 35 -1 35 C-1.495 30.05 -1.495 30.05 -2 25 C-4.165625 25.0309375 -4.165625 25.0309375 -6.375 25.0625 C-10.75 25.125 -10.75 25.125 -13 24 C-13.8971875 24.2475 -13.8971875 24.2475 -14.8125 24.5 C-17.48386557 25.11059785 -19.33976638 24.54568895 -22 24 C-22.99 24.33 -23.98 24.66 -25 25 C-25.33 35.89 -25.66 46.78 -26 58 C-26.33 58 -26.66 58 -27 58 C-27.224285 53.32298688 -27.38659041 48.64916727 -27.49438477 43.96801758 C-27.53935437 42.37989736 -27.60055903 40.79214367 -27.67895508 39.20532227 C-28.31306251 26.0299789 -28.31306251 26.0299789 -25.08618164 21.04125977 C-22.83571918 18.80366628 -20.52017334 16.92117253 -18 15 C-16.73827652 13.63352452 -15.5031053 12.24136683 -14.3125 10.8125 C-4.992125 0 -4.992125 0 0 0 Z " fill="#43493F" transform="translate(152,50)"/>
<path d="M0 0 C29.04 0 58.08 0 88 0 C83.94500008 4.73083325 80.75103691 8.26704243 76 12 C76.66 10.35 77.32 8.7 78 7 C78.66 7 79.32 7 80 7 C80.33 5.35 80.66 3.7 81 2 C80.1304921 2.00222061 79.26098419 2.00444122 78.36512756 2.00672913 C70.14160797 2.02682684 61.91809672 2.0420223 53.69455814 2.05181217 C49.46750395 2.05701454 45.24047018 2.06406376 41.01342773 2.07543945 C36.92855569 2.08636283 32.8437032 2.09229674 28.75881767 2.09487724 C27.20603567 2.09671454 25.65325464 2.10030211 24.10048103 2.10573006 C21.91339999 2.11306621 19.72639815 2.1139857 17.53930664 2.11352539 C15.67732384 2.11685631 15.67732384 2.11685631 13.77772522 2.12025452 C9.50431017 1.98422094 5.24942907 1.47215879 1 1 C1 27.73 1 54.46 1 82 C0.67 82 0.34 82 0 82 C0 54.94 0 27.88 0 0 Z " fill="#B59E4E" transform="translate(59,51)"/>
<path d="M0 0 C0.33 0 0.66 0 1 0 C1 24.42 1 48.84 1 74 C11.56 73.67 22.12 73.34 33 73 C33.33 57.82 33.66 42.64 34 27 C34.33 27 34.66 27 35 27 C36.47072019 42.96781926 36.06674409 58.9814179 36 75 C23.79 75 11.58 75 -1 75 C-0.67 50.25 -0.34 25.5 0 0 Z " fill="#0E0F14" transform="translate(10,10)"/>
<path d="M0 0 C0.33 0 0.66 0 1 0 C1.01981934 0.98919434 1.03963867 1.97838867 1.06005859 2.99755859 C1.13603456 6.66172077 1.22476352 10.32548164 1.31738281 13.98925781 C1.35570585 15.57609138 1.39055288 17.16301281 1.421875 18.75 C1.46745431 21.02896566 1.52545838 23.30732468 1.5859375 25.5859375 C1.59748871 26.29744965 1.60903992 27.00896179 1.62094116 27.74203491 C1.63408239 31.82103657 1.63408239 31.82103657 4 35 C2.68 35 1.36 35 0 35 C-0.226875 35.598125 -0.45375 36.19625 -0.6875 36.8125 C-2 39 -2 39 -4.1875 40.25 C-7.69637713 42.43330133 -9.85988479 45.16903782 -12.44921875 48.35546875 C-13.21685547 49.16951172 -13.21685547 49.16951172 -14 50 C-14.66 50 -15.32 50 -16 50 C-16 50.66 -16 51.32 -16 52 C-11.03926578 53.32286246 -6.08888488 53.08893197 -1 53 C-0.67 53.99 -0.34 54.98 0 56 C-7.59 56 -15.18 56 -23 56 C-21.02 53.03 -21.02 53.03 -19 50 C-18.34 50 -17.68 50 -17 50 C-16.79375 49.45601562 -16.5875 48.91203125 -16.375 48.3515625 C-14.47179966 45.09665737 -11.7970664 42.84222367 -9 40.375 C-7.91644685 39.40389105 -6.83310493 38.43254634 -5.75 37.4609375 C-4.8425 36.64882812 -3.935 35.83671875 -3 35 C-0.16992998 32.16992998 -0.64754074 29.38047148 -0.5859375 25.5859375 C-0.56657135 24.85629791 -0.5472052 24.12665833 -0.5272522 23.37490845 C-0.46741578 21.04172498 -0.42105577 18.70849227 -0.375 16.375 C-0.33682386 14.79424918 -0.29777235 13.21351924 -0.2578125 11.6328125 C-0.16171122 7.7553777 -0.07769588 3.87784551 0 0 Z " fill="#755908" transform="translate(85,76)"/>
<path d="M0 0 C36.12756264 -0.14806378 36.12756264 -0.14806378 53 1 C53 1.33 53 1.66 53 2 C36.17 2 19.34 2 2 2 C2 7.28 2 12.56 2 18 C1.87029151 21.00182503 1.71407074 24.00300959 1.5 27 C1.45230469 27.6909375 1.40460938 28.381875 1.35546875 29.09375 C1.24187403 30.72951395 1.12176841 32.3648242 1 34 C0.67 34 0.34 34 0 34 C0 22.78 0 11.56 0 0 Z " fill="#0C0F12" transform="translate(113,147)"/>
<path d="M0 0 C0.33 0 0.66 0 1 0 C1.94798721 10.65550447 2.12155639 21.18736114 2.0625 31.875 C2.041875 37.19625 2.02125 42.5175 2 48 C-15.49 48 -32.98 48 -51 48 C-51 47.67 -51 47.34 -51 47 C-33.84 47 -16.68 47 1 47 C0.76666667 40.36666667 0.76666667 40.36666667 -2 38 C-1.67402832 37.16645996 -1.34805664 36.33291992 -1.01220703 35.47412109 C0.11313609 31.61169162 0.22746067 28.43258395 0.1953125 24.4140625 C0.19106766 23.36138687 0.19106766 23.36138687 0.18673706 22.28744507 C0.17562512 20.06644972 0.15053834 17.84587155 0.125 15.625 C0.11495854 14.11068295 0.10583473 12.59635951 0.09765625 11.08203125 C0.07571554 7.38788742 0.04124875 3.69398449 0 0 Z " fill="#F8F9FA" transform="translate(163,98)"/>
<path d="M0 0 C0.33 0 0.66 0 1 0 C1 21.45 1 42.9 1 65 C-10.55 64.67 -22.1 64.34 -34 64 C-34 63.67 -34 63.34 -34 63 C-25.36300216 62.13164833 -16.8599313 61.91155989 -8.1862793 62.03710938 C-6.12426551 62.05902104 -4.06185088 62.03393993 -2 62 C-0.23246465 60.23246465 -0.82913939 57.68441194 -0.79467773 55.28686523 C-0.77473251 54.0656749 -0.75478729 52.84448456 -0.73423767 51.58628845 C-0.71725209 50.24372487 -0.70037333 48.90115993 -0.68359375 47.55859375 C-0.66303053 46.19238139 -0.64203423 44.82617549 -0.62062073 43.4599762 C-0.56533465 39.85805476 -0.51595437 36.25607529 -0.46777344 32.65405273 C-0.41760597 28.98090428 -0.36189515 25.30784045 -0.30664062 21.63476562 C-0.19897918 14.42324868 -0.09755213 7.21166153 0 0 Z " fill="#03284F" transform="translate(201,21)"/>
<path d="M0 0 C0.33 0 0.66 0 1 0 C1.89645153 5.35736512 2.15247777 10.51064023 2.125 15.9375 C2.12886719 16.69740234 2.13273437 17.45730469 2.13671875 18.24023438 C2.12817323 23.24363828 1.70999018 28.04697326 1 33 C0.67 33 0.34 33 0 33 C0 22.11 0 11.22 0 0 Z M-54 33 C-36.18 33 -18.36 33 0 33 C0 33.33 0 33.66 0 34 C-25.245 34.495 -25.245 34.495 -51 35 C-51.66 36.32 -52.32 37.64 -53 39 C-53.33 39 -53.66 39 -54 39 C-54 37.02 -54 35.04 -54 33 Z " fill="#FBFCFC" transform="translate(100,5)"/>
<path d="M0 0 C9.61151406 0.78759708 19.2406356 0.91236693 28.87890625 1.1171875 C30.79492915 1.16048654 32.71094488 1.20410398 34.62695312 1.24804688 C39.2733631 1.35392756 43.91984851 1.45551246 48.56640625 1.5546875 C48.56640625 1.8846875 48.56640625 2.2146875 48.56640625 2.5546875 C28.10640625 2.5546875 7.64640625 2.5546875 -13.43359375 2.5546875 C-13.10359375 1.8946875 -12.77359375 1.2346875 -12.43359375 0.5546875 C-8.13735291 -0.51937271 -4.39327682 -0.41596192 0 0 Z " fill="#696A51" transform="translate(99.43359375,130.4453125)"/>
<path d="M0 0 C0.33 0.66 0.66 1.32 1 2 C-3.70072993 11.23357664 -3.70072993 11.23357664 -9 13 C-9.33 23.89 -9.66 34.78 -10 46 C-10.33 46 -10.66 46 -11 46 C-11.224285 41.32298688 -11.38659041 36.64916727 -11.49438477 31.96801758 C-11.53935437 30.37989736 -11.60055903 28.79214367 -11.67895508 27.20532227 C-12.31455379 13.99899357 -12.31455379 13.99899357 -9.02685547 8.99951172 C-6.79177679 6.78951106 -4.49001896 4.90940199 -2 3 C-1.34 2.01 -0.68 1.02 0 0 Z " fill="#626C68" transform="translate(136,62)"/>
<path d="M0 0 C0.99 0 1.98 0 3 0 C3.19558903 10.69220032 2.59054589 21.32799208 2 32 C1.67 32 1.34 32 1 32 C0.67 21.44 0.34 10.88 0 0 Z " fill="#191921" transform="translate(9,99)"/>
<path d="M0 0 C2.90951423 0.47502273 4.31867718 0.31298454 7.0625 -0.5 C7.3925 -0.17 7.7225 0.16 8.0625 0.5 C9.40997084 0.73075082 10.76627565 0.91153063 12.125 1.0625 C13.424375 1.206875 14.72375 1.35125 16.0625 1.5 C16.0625 1.83 16.0625 2.16 16.0625 2.5 C9.80955634 3.15767207 4.27936935 3.58795214 -1.9375 2.5 C-4.25730946 3.32342532 -4.25730946 3.32342532 -5.9375 4.5 C-5.9375 3.18 -5.9375 1.86 -5.9375 0.5 C-2.9375 -0.5 -2.9375 -0.5 0 0 Z " fill="#2D4B54" transform="translate(132.9375,73.5)"/>
<path d="M0 0 C2.97 0 5.94 0 9 0 C5.26704728 4.53287116 1.61513452 8.37382288 -3 12 C-2.34 10.35 -1.68 8.7 -1 7 C-0.34 7 0.32 7 1 7 C1.67958603 4.60280568 1.67958603 4.60280568 2 2 C1.34 1.34 0.68 0.68 0 0 Z " fill="#AF901E" transform="translate(138,51)"/>
<path d="M0 0 C1.98 0 3.96 0 6 0 C5.03114628 1.68496298 4.03013277 3.35178756 3 5 C2.67 5 2.34 5 2 5 C1.67 7.31 1.34 9.62 1 12 C0.67 12 0.34 12 0 12 C0 8.04 0 4.08 0 0 Z " fill="#BA9109" transform="translate(61,52)"/>
<path d="M0 0 C0.66 0 1.32 0 2 0 C1.34 1.65 0.68 3.3 0 5 C2.31 5 4.62 5 7 5 C7 5.33 7 5.66 7 6 C3.37 6 -0.26 6 -4 6 C-2.7260411 3.96166576 -1.38938077 1.96147874 0 0 Z " fill="#856515" transform="translate(66,126)"/>
<path d="M0 0 C1.32 0 2.64 0 4 0 C4 2.97 4 5.94 4 9 C3.67 9 3.34 9 3 9 C2.67 7.02 2.34 5.04 2 3 C0.68 3.33 -0.64 3.66 -2 4 C-1.34 2.68 -0.68 1.36 0 0 Z " fill="#07273F" transform="translate(198,5)"/>
<path d="M0 0 C0.66 0.33 1.32 0.66 2 1 C-0.35277269 3.72426311 -2.62496331 4.8141763 -6 6 C-4.98545548 3.4636387 -4.3146444 2.20648539 -2 0.6875 C-1.34 0.460625 -0.68 0.23375 0 0 Z " fill="#51543B" transform="translate(131,70)"/>
<path d="M0 0 C0.66 0.33 1.32 0.66 2 1 C0.515 3.475 0.515 3.475 -1 6 C-2.9375 5.625 -2.9375 5.625 -5 5 C-5.33 4.34 -5.66 3.68 -6 3 C-5.38125 2.87625 -4.7625 2.7525 -4.125 2.625 C-1.80879168 2.12802644 -1.80879168 2.12802644 0 0 Z " fill="#B08705" transform="translate(85,65)"/>
</svg>
